<svg width="21" height="20" viewBox="0 0 21 20" fill="none" xmlns="http://www.w3.org/2000/svg">
<g clip-path="url(#clip0_325_6583)">
<path d="M12.1667 5.83333V0.383333C12.9275 0.671667 13.6275 1.11583 14.2208 1.70833L17.1242 4.61333C17.7175 5.20583 18.1617 5.90583 18.45 6.66667H13C12.54 6.66667 12.1667 6.2925 12.1667 5.83333ZM13.4167 12.5H7.58332C7.35332 12.5 7.16666 12.6867 7.16666 12.9167V14.5833C7.16666 14.8133 7.35332 15 7.58332 15H13.4167C13.6467 15 13.8333 14.8133 13.8333 14.5833V12.9167C13.8333 12.6867 13.6467 12.5 13.4167 12.5ZM18.8333 8.7375V15.8333C18.8333 18.1308 16.9642 20 14.6667 20H6.33332C4.03582 20 2.16666 18.1308 2.16666 15.8333V4.16667C2.16666 1.86917 4.03582 0 6.33332 0H10.0958C10.2317 0 10.3658 0.0108333 10.5 0.02V5.83333C10.5 7.21167 11.6217 8.33333 13 8.33333H18.8133C18.8225 8.4675 18.8333 8.60167 18.8333 8.7375ZM5.49999 5C5.49999 5.46 5.87332 5.83333 6.33332 5.83333H7.99999C8.45999 5.83333 8.83332 5.46 8.83332 5C8.83332 4.54 8.45999 4.16667 7.99999 4.16667H6.33332C5.87332 4.16667 5.49999 4.54 5.49999 5ZM5.49999 8.33333C5.49999 8.79333 5.87332 9.16667 6.33332 9.16667H7.99999C8.45999 9.16667 8.83332 8.79333 8.83332 8.33333C8.83332 7.87333 8.45999 7.5 7.99999 7.5H6.33332C5.87332 7.5 5.49999 7.87333 5.49999 8.33333ZM15.5 12.9167C15.5 11.7683 14.565 10.8333 13.4167 10.8333H7.58332C6.43499 10.8333 5.49999 11.7683 5.49999 12.9167V14.5833C5.49999 15.7317 6.43499 16.6667 7.58332 16.6667H13.4167C14.565 16.6667 15.5 15.7317 15.5 14.5833V12.9167Z" fill="#AFB1B0"/>
</g>
<defs>
<clipPath id="clip0_325_6583">
<rect width="20" height="20" fill="white" transform="translate(0.5)"/>
</clipPath>
</defs>
</svg>
