<svg width="20" height="20" viewBox="0 0 20 20" fill="none" xmlns="http://www.w3.org/2000/svg">
<g clip-path="url(#clip0_325_6569)">
<path d="M4.16667 16.6668H10.8333C13.1308 16.6668 15 14.7977 15 12.5002V7.50016C15 5.20266 13.1308 3.3335 10.8333 3.3335H4.16667C1.86917 3.3335 0 5.20266 0 7.50016V12.5002C0 14.7977 1.86917 16.6668 4.16667 16.6668ZM20 6.92766V13.0268C20 13.6577 19.65 14.2243 19.0858 14.506C18.85 14.6235 18.5967 14.6818 18.345 14.6818C17.9942 14.6818 17.6475 14.5693 17.3542 14.3493C17.3233 14.326 16.6667 13.6743 16.6667 13.6743V6.28683C16.6667 6.28683 17.3217 5.62933 17.3542 5.60516C17.8575 5.22683 18.52 5.166 19.0858 5.4485C19.6517 5.731 20 6.29683 20 6.92766Z" fill="#AFB1B0"/>
</g>
<defs>
<clipPath id="clip0_325_6569">
<rect width="20" height="20" fill="white"/>
</clipPath>
</defs>
</svg>
