<svg width="20" height="20" viewBox="0 0 20 20" fill="none" xmlns="http://www.w3.org/2000/svg">
<path d="M12.5 6.66662H17.95C17.6591 5.89568 17.2071 5.19568 16.6242 4.6133L13.7209 1.7083C13.1378 1.12607 12.4376 0.674395 11.6667 0.383301V5.8333C11.6667 6.2935 12.0398 6.66662 12.5 6.66662Z" fill="#F4A417"/>
<path d="M18.3133 8.33332H12.5C11.1193 8.33332 10 7.21402 10 5.83332V0.02C9.86582 0.0108203 9.73168 0 9.59582 0H5.83332C3.53328 0.00277344 1.66941 1.86664 1.66668 4.16668V15.8334C1.66941 18.1334 3.53328 19.9973 5.83332 20H14.1666C16.4667 19.9973 18.3305 18.1334 18.3333 15.8333V8.7375C18.3333 8.60168 18.3225 8.4675 18.3133 8.33332Z" fill="#F4A417"/>
</svg>
