<svg width="25" height="30" viewBox="0 0 25 30" fill="none" xmlns="http://www.w3.org/2000/svg">
<path d="M16.5559 7.60373V22.0044H19.1273V14.8871C19.7268 14.6589 20.3623 14.5404 21.0046 14.5404C22.0476 14.5404 23.0765 14.8537 23.9527 15.442H24.3078V12.9169C23.3062 12.4659 22.1899 12.2158 21.0046 12.2158C20.356 12.2158 19.7278 12.291 19.1273 12.433V7.60373C19.1273 5.24834 20.7609 3.52721 23.1518 3.52721C23.5619 3.52721 23.9485 3.57733 24.3078 3.67077V1.13894C23.9349 1.08099 23.5489 1.05176 23.1518 1.05176C19.3392 1.05176 16.5559 3.76891 16.5559 7.60373Z" fill="#F4A417"/>
<path fill-rule="evenodd" clip-rule="evenodd" d="M16.0006 7.60625C16.0006 3.46221 19.0366 0.5 23.1541 0.5C23.5786 0.5 23.9935 0.531261 24.3962 0.593826L24.8676 0.667074V4.3912L24.169 4.20954C23.8573 4.1285 23.5183 4.08402 23.1541 4.08402C22.0983 4.08402 21.2402 4.46122 20.6454 5.0707C20.0489 5.68186 19.6871 6.55793 19.6871 7.60625V11.7632C20.1168 11.6979 20.5575 11.6641 21.0069 11.6641C22.2719 11.6641 23.4665 11.9311 24.5401 12.4145L24.8676 12.562V15.9988H23.7843L23.6428 15.9038C22.8582 15.3769 21.9378 15.0972 21.0069 15.0972C20.5596 15.0972 20.1156 15.1616 19.6871 15.2869V22.5612H16.0006V7.60625ZM23.1541 1.60856C19.6462 1.60856 17.1157 4.08067 17.1157 7.60625V21.4526H18.572V14.5083L18.9302 14.3719C19.5924 14.1199 20.2954 13.9887 21.0069 13.9887C21.9629 13.9887 22.9069 14.2262 23.7525 14.6766V13.2864C22.9088 12.9548 21.9843 12.7727 21.0069 12.7727C20.4018 12.7727 19.8168 12.8428 19.2586 12.9748L18.572 13.1371V7.60625C18.572 6.29919 19.027 5.137 19.8451 4.29875C20.6648 3.45882 21.8189 2.97546 23.1541 2.97546C23.3581 2.97546 23.5577 2.98662 23.7525 3.00844V1.63309C23.557 1.6168 23.3574 1.60856 23.1541 1.60856Z" fill="#F4A417"/>
<path d="M0.691162 22.0088V12.6958C0.691162 7.94851 4.07596 5.54405 8.19253 6.0311V8.43556C5.17336 8.1615 3.25212 9.62213 3.25212 12.6353V22.0088H0.691162Z" fill="#F4A417"/>
<path fill-rule="evenodd" clip-rule="evenodd" d="M2.53873 6.97084C4.03862 5.7213 6.07604 5.21776 8.25711 5.47581L8.74876 5.53398V9.03787L8.14053 8.98265C6.72326 8.854 5.65283 9.14035 4.94485 9.72438C4.24655 10.3004 3.80834 11.2428 3.80834 12.6304V22.5582H0.132324V12.6909C0.132324 10.1801 1.03224 8.2259 2.53873 6.97084ZM3.25492 7.82052C2.03987 8.83277 1.24739 10.4544 1.24739 12.6909V21.4496H2.69328V12.6304C2.69328 11.0049 3.21569 9.71031 4.23281 8.87126C5.11055 8.1472 6.28611 7.82099 7.63369 7.84517V6.53278C5.90033 6.42959 4.37207 6.88983 3.25492 7.82052Z" fill="#F4A417"/>
<path d="M8.98207 12.2202C10.1663 12.2202 11.2831 12.4703 12.2847 12.9213V15.4463H11.9296C11.0534 14.858 10.0256 14.5448 8.98207 14.5448C7.93802 14.5448 6.90966 14.858 6.03404 15.4463H5.67834V12.9213C6.68055 12.4703 7.79731 12.2202 8.98207 12.2202Z" fill="#F4A417"/>
<path fill-rule="evenodd" clip-rule="evenodd" d="M5.44712 12.4189C6.52115 11.9355 7.71625 11.6685 8.98076 11.6685C10.2447 11.6685 11.4399 11.9355 12.5135 12.4189L12.841 12.5664V16.0032H11.7576L11.6162 15.9082C10.8315 15.3812 9.91216 15.1016 8.98076 15.1016C8.04873 15.1016 7.12897 15.3813 6.34492 15.9081L6.20346 16.0032H5.11951V12.5663L5.44712 12.4189ZM6.23457 13.2908V14.6811C7.0799 14.2306 8.02378 13.993 8.98076 13.993C9.93729 13.993 10.8806 14.2306 11.7259 14.6809V13.2908C10.8821 12.9592 9.95727 12.777 8.98076 12.777C8.00376 12.777 7.07881 12.9592 6.23457 13.2908Z" fill="#F4A417"/>
<path d="M17.5283 26.6257C19.62 26.6257 21.1417 25.6783 22.0162 24.0386H22.3332L23.9118 25.5384L24.0065 25.6292C22.6486 27.7732 20.3832 28.9503 17.5283 28.9503C14.8104 28.9503 12.4498 27.6374 11.0134 25.5869L12.6428 24.0386H12.9749C13.9813 25.6981 15.7326 26.6257 17.5283 26.6257Z" fill="#F4A417"/>
<path fill-rule="evenodd" clip-rule="evenodd" d="M12.4185 23.4795H13.2892L13.4517 23.7476C14.3559 25.2385 15.9247 26.0667 17.5276 26.0667C19.4194 26.0667 20.7481 25.2269 21.523 23.7741L21.6801 23.4795H22.5561L24.2983 25.1347L24.7191 25.5384L24.4776 25.9197C23.0058 28.2436 20.5507 29.4998 17.5276 29.4998C14.6223 29.4998 12.0929 28.094 10.5552 25.8989L10.2824 25.5094L12.4185 23.4795ZM12.7475 24.7004L11.7542 25.6443C13.1048 27.3315 15.1692 28.3913 17.5276 28.3913C20.0396 28.3913 22.0174 27.4314 23.2808 25.7013L22.2543 24.7261C21.2495 26.2856 19.6318 27.1752 17.5276 27.1752C15.6816 27.1752 13.8828 26.29 12.7475 24.7004Z" fill="#F4A417"/>
</svg>
