<svg width="20" height="20" viewBox="0 0 20 20" fill="none" xmlns="http://www.w3.org/2000/svg">
<g clip-path="url(#clip0_325_6590)">
<path d="M10.7358 12.6802L4.12333 19.2927C3.90104 19.5261 3.63431 19.7126 3.33883 19.8414C3.04335 19.9702 2.72509 20.0386 2.4028 20.0425C2.0805 20.0464 1.76067 19.9858 1.46214 19.8643C1.16361 19.7428 0.892405 19.5628 0.66449 19.3348C0.436575 19.1069 0.256555 18.8357 0.135026 18.5372C0.0134973 18.2387 -0.0470852 17.9188 -0.0431553 17.5965C-0.0392255 17.2742 0.0291374 16.956 0.157909 16.6605C0.286681 16.365 0.473261 16.0983 0.706665 15.876L7.31917 9.2635L10.7358 12.6802ZM14.25 5.75016C13.7899 5.31046 13.1781 5.06508 12.5417 5.06508C11.9053 5.06508 11.2934 5.31046 10.8333 5.75016L8.5 8.0835L11.9167 11.5002L14.25 9.16683C14.7029 8.71366 14.9573 8.09919 14.9573 7.4585C14.9573 6.81781 14.7029 6.20333 14.25 5.75016ZM4.0525 4.28766L5.34417 4.656L5.7125 5.94766C5.77184 6.15493 5.89705 6.33723 6.0692 6.46701C6.24135 6.59679 6.45108 6.66699 6.66667 6.66699C6.88226 6.66699 7.09198 6.59679 7.26413 6.46701C7.43628 6.33723 7.56149 6.15493 7.62083 5.94766L7.98917 4.656L9.28083 4.28766C9.4881 4.22832 9.6704 4.10311 9.80018 3.93096C9.92996 3.75881 10.0002 3.54909 10.0002 3.3335C10.0002 3.11791 9.92996 2.90818 9.80018 2.73603C9.6704 2.56388 9.4881 2.43867 9.28083 2.37933L7.98917 2.011L7.62083 0.719329C7.56149 0.512066 7.43628 0.32976 7.26413 0.199979C7.09198 0.0701982 6.88226 0 6.66667 0C6.45108 0 6.24135 0.0701982 6.0692 0.199979C5.89705 0.32976 5.77184 0.512066 5.7125 0.719329L5.34417 2.011L4.0525 2.37933C3.84524 2.43867 3.66293 2.56388 3.53315 2.73603C3.40337 2.90818 3.33317 3.11791 3.33317 3.3335C3.33317 3.54909 3.40337 3.75881 3.53315 3.93096C3.66293 4.10311 3.84524 4.22832 4.0525 4.28766ZM14.0525 14.2877L15.3442 14.656L15.7125 15.9477C15.7718 16.1549 15.897 16.3372 16.0692 16.467C16.2413 16.5968 16.4511 16.667 16.6667 16.667C16.8823 16.667 17.092 16.5968 17.2641 16.467C17.4363 16.3372 17.5615 16.1549 17.6208 15.9477L17.9892 14.656L19.2808 14.2877C19.4881 14.2283 19.6704 14.1031 19.8002 13.931C19.93 13.7588 20.0002 13.5491 20.0002 13.3335C20.0002 13.1179 19.93 12.9082 19.8002 12.736C19.6704 12.5639 19.4881 12.4387 19.2808 12.3793L17.9892 12.011L17.6208 10.7193C17.5615 10.5121 17.4363 10.3298 17.2641 10.2C17.092 10.0702 16.8823 10 16.6667 10C16.4511 10 16.2413 10.0702 16.0692 10.2C15.897 10.3298 15.7718 10.5121 15.7125 10.7193L15.3442 12.011L14.0525 12.3793C13.8452 12.4387 13.6629 12.5639 13.5331 12.736C13.4034 12.9082 13.3332 13.1179 13.3332 13.3335C13.3332 13.5491 13.4034 13.7588 13.5331 13.931C13.6629 14.1031 13.8452 14.2283 14.0525 14.2877ZM14.7967 3.75016L15.9258 4.07266L16.25 5.2035C16.3028 5.38365 16.4125 5.54185 16.5627 5.6544C16.7129 5.76695 16.8956 5.82778 17.0833 5.82778C17.2711 5.82778 17.4537 5.76695 17.604 5.6544C17.7542 5.54185 17.8639 5.38365 17.9167 5.2035L18.2392 4.07433L19.37 3.75016C19.5502 3.6974 19.7084 3.58769 19.8209 3.43745C19.9335 3.28721 19.9943 3.10455 19.9943 2.91683C19.9943 2.72911 19.9335 2.54645 19.8209 2.39621C19.7084 2.24597 19.5502 2.13625 19.37 2.0835L18.2408 1.761L17.9167 0.630163C17.8639 0.45001 17.7542 0.291806 17.604 0.179257C17.4537 0.0667076 17.2711 0.00587508 17.0833 0.00587508C16.8956 0.00587508 16.7129 0.0667076 16.5627 0.179257C16.4125 0.291806 16.3028 0.45001 16.25 0.630163L15.9275 1.75933L14.7967 2.0835C14.6165 2.13625 14.4583 2.24597 14.3458 2.39621C14.2332 2.54645 14.1724 2.72911 14.1724 2.91683C14.1724 3.10455 14.2332 3.28721 14.3458 3.43745C14.4583 3.58769 14.6165 3.6974 14.7967 3.75016Z" fill="#C7C7C7"/>
</g>
<defs>
<clipPath id="clip0_325_6590">
<rect width="20" height="20" fill="white"/>
</clipPath>
</defs>
</svg>
